<?xml version="1.0" encoding="UTF-8"?>
<svg id="Layer_1" xmlns="http://www.w3.org/2000/svg" viewBox="0 0 439.02 110.99">
  <defs>
    <style>
      .cls-1 {
        fill: #231f20;
      }
    </style>
  </defs>
  <path class="cls-1" d="M164.71,4.71c-1.48-.02-.92.8-1.13.95,2.46-.27,1.06-1.17,1.13-.95Z"/>
  <polygon class="cls-1" points="189.08 2.24 188.65 2.59 192.25 1.73 189.08 2.24"/>
  <path class="cls-1" d="M211.95,2.4c-2.14-1.49-8.29.1-12.36-.43l-.67-.33-1.84,1.15c4.95-.17,11.39-.87,14.87-.39Z"/>
  <path class="cls-1" d="M224.03,5.8c-.73-.58,2.64-.4-2.83-.26.27.07.35.11.51.16.49,0,1.17.03,2.32.1Z"/>
  <path class="cls-1" d="M221.72,5.7c-2.4-.03,1.55.51,0,0h0Z"/>
  <path class="cls-1" d="M232.8,5.8l-3.18.37c.65.35,3.45.54,2.4.74,3.25-.14,2.6-.49.78-1.11Z"/>
  <path class="cls-1" d="M235.85,4.9l-1.65.13c.28.15.71.22,1.65-.13Z"/>
  <path class="cls-1" d="M230.71,5.32l3.49-.3c-.45-.26-.48-.72-1.6.09.3-.41-.4-.03-1.89.21Z"/>
  <path class="cls-1" d="M228.75,5.02c-1.76-.38-4.05-.67-.85-1.04-3.03-.03-4.33.24-4.12.5.21.25,1.94.51,4.97.54Z"/>
  <path class="cls-1" d="M213.15.94l-2.38-.46-2.07.44c1.03-.22,4.58.48,4.44.03Z"/>
  <path class="cls-1" d="M252.42,7.65c.22-.29-1-.89-1.21-1.29l-2.35.2c1.19.28,3.44.62,3.57,1.08Z"/>
  <path class="cls-1" d="M251.2,6.36l3.52-.27c-3.11-.29-3.7-.08-3.52.27Z"/>
  <path class="cls-1" d="M236.49,3.34c-1.93.26-3.87.54-5.8.83,2.3-.29,4.6-.55,6.91-.79l-1.11-.04Z"/>
  <polygon class="cls-1" points="265.71 8.71 263.68 9.25 267.28 8.48 265.71 8.71"/>
  <path class="cls-1" d="M274.53,9.39c-1.51.44,1.9,1.17.33,1.38,2.4.11,4.49-.17,6.37-.42-1.98.04-4.05-.24-6.7-.96Z"/>
  <path class="cls-1" d="M284.38,10.02c-.99.04-2.03.18-3.15.33,1.05-.03,2.09-.11,3.15-.33Z"/>
  <path class="cls-1" d="M260.66,6.68c.26.21.74.73,2.67,1.09l-1.3-.97c-.42-.04-.89-.08-1.37-.13Z"/>
  <path class="cls-1" d="M261.98,6.77l.05.03c1.49.15,2.52.25,2.96.29-.38-.04-1.28-.14-3-.33Z"/>
  <path class="cls-1" d="M260.31,6.65c.13.01.22.02.35.03-.13-.09-.2-.13-.35-.03Z"/>
  <path class="cls-1" d="M245.62,4.62c2.08-.35,6.4-.59,2.3-1.58-1.51.49.84,1.05-2.3,1.58Z"/>
  <path class="cls-1" d="M258.69,5.46l-3.7-.46c.06.23.7.61-.33.77l4.03-.31Z"/>
  <polygon class="cls-1" points="260.53 5.32 258.69 5.46 260.06 5.63 260.53 5.32"/>
  <path class="cls-1" d="M278.14,8.56c1.63-.2,3.38-.05,5.36.1-2.1-.39-4.27-.72-6.35-.92-.32.24-1.28.63.99.82Z"/>
  <path class="cls-1" d="M270.3,7.58c.11,0,.25-.01.36-.02-.21-.09-.38-.13-.36.02Z"/>
  <path class="cls-1" d="M302.89,10.95c-.1-.07-.19-.13-.29-.19-.03.05-.05.09-.09.14l.38.06Z"/>
  <path class="cls-1" d="M276.81,7.55c-1.58-.31-2.55-.2-3.48-.02,1.2.03,2.46.09,3.82.21.14-.11.18-.19-.34-.19Z"/>
  <path class="cls-1" d="M289.83,10.22c-.81-.27-1.73-.53-2.69-.78.78.36,2.38.97,2.69.78Z"/>
  <path class="cls-1" d="M271.17,7.85c-.08,0-.15.01-.24.02.5.23.45.14.24-.02Z"/>
  <path class="cls-1" d="M271.17,7.85c.83-.05,1.49-.19,2.16-.32-.97-.02-1.88-.02-2.67.03.19.08.38.19.51.29Z"/>
  <path class="cls-1" d="M309.5,6.31c-.39.75-4.67.88-8.18-.41-3.64.14-1.63,3.02,1.27,4.85.15-.32.2-.67,3.9-.62-1.21-.63-7.97-2.05-4.79-2.37,4.9.2,3.93.81,6.22,1.53-1.86-1.26,6.35-.57,5.5-2.14l-4.32-.1c-.05-.23,1.54-.38.39-.75Z"/>
  <path class="cls-1" d="M295.67,9.8l-1.51-.08c1.7.33,2.88.82,5.05,1.71,2.54-.07,3.1-.29,3.3-.53l-7.37-1.04.53-.05Z"/>
  <path class="cls-1" d="M287.41,8.95c1.27-.72,4.92-.67,2.82-1.85-4.42-.45-3.17.36-5.85.45,7.15.55-2.1.25,2.99,1.3-1.41-.02-2.68-.09-3.87-.19,1.27.24,2.49.49,3.64.78-.06-.03-.11-.05-.16-.07h-.03s0,0,0-.01c-.29-.14-.39-.22-.05-.12.02,0,.11,0,.15,0,.06-.11.2-.2.36-.29,2.04.41.3.26-.36.29-.03.04-.09.07-.1.12,0,0,.02,0,.03.01l7.17.35c-1.49-.29-3.38-.49-6.74-.78Z"/>
  <path class="cls-1" d="M251.87,1.43c.22.09.2.15.22.22.47-.07.65-.13-.22-.22Z"/>
  <path class="cls-1" d="M254.79,2.16c-.53.08-.99.39-2.68.18-1.46-.36.03-.41-.02-.7-1.04.16-3.62.39-.44,1.01l.52-.08c2.87.51,6.5,1.85,5.99,1.93-.78-.83-1.49-1.44-3.36-2.34Z"/>
  <path class="cls-1" d="M271.38,5.19l6,.14-2.97-1.03.11.46c-3.38-.49-2.69.12-3.15.43Z"/>
  <polygon class="cls-1" points="303.51 11.47 302.61 12.27 306.19 11.45 303.51 11.47"/>
  <polygon class="cls-1" points="311.2 12.41 310.8 13.15 312.89 12.98 311.2 12.41"/>
  <path class="cls-1" d="M150.21,106.31l-1.78.12c.84-.02,1.38-.06,1.78-.12Z"/>
  <path class="cls-1" d="M162.98,107.1l.33-.37c-.6.18-.85.33-.33.37Z"/>
  <path class="cls-1" d="M396.56,88.45c-2.64-.04-5.63-.4-5.1.38l.97.63c1.65-.62,2.98-.88,4.14-1.01Z"/>
  <path class="cls-1" d="M267.83,106.04c.24.09.5.18.75.27.63-.29,1.22-.57,1.74-.81-.75.16-1.6.35-2.49.54Z"/>
  <path class="cls-1" d="M265.97,109.61l-3.38-.61c.76.21,1.85.42,3.38.61Z"/>
  <path class="cls-1" d="M80.44,102.04l-2.13.7c3.22.28,1.84-.29,2.13-.7Z"/>
  <path class="cls-1" d="M387.18,31.58c1.86,1.15,3.33,2.05,4.68,2.71-2.14-1.53-3.75-3.13-4.68-2.71Z"/>
  <path class="cls-1" d="M155.77,97.41c-1.08.09-1.55.24-1.53.44,1.12-.08,1.75-.21,1.53-.44Z"/>
  <path class="cls-1" d="M397.44,37.03c-.3-.25-.61-.46-.92-.7-.73-.3-1.46-.6-2.22-.94-.77-.31-1.58-.67-2.44-1.1.79.58,1.66,1.12,2.59,1.62.92.51,1.91.91,2.99,1.12Z"/>
  <path class="cls-1" d="M144.44,5.39c.19.02.41,0,.58.03.04-.12-.21-.1-.58-.03Z"/>
  <path class="cls-1" d="M218.66,6.91c-.72.1-1.9.19-3,.27.55.02,1.45-.05,3-.27Z"/>
  <path class="cls-1" d="M341.67,18.16c-1.6-.3-.27.04,0,0h0Z"/>
  <path class="cls-1" d="M334.56,13.2c.36-.03.65-.1.73-.29-.17.18-.42.26-.73.29Z"/>
  <path class="cls-1" d="M414.18,40.49s.07.05.12.08c-.32-.41-.27-.33-.12-.08Z"/>
  <path class="cls-1" d="M339.36,17.26c.58.22,1.25.47,1.98.69-.32-.13-.91-.37-1.98-.69Z"/>
  <path class="cls-1" d="M339.6,17.72c-.54-.14-.97-.25-1.38-.36-.23.1-.07.23,1.38.36Z"/>
  <path class="cls-1" d="M343.89,18.61c-.91-.19-1.75-.42-2.55-.66.3.13.42.2.33.21.47.09,1.13.23,2.22.45Z"/>
  <path class="cls-1" d="M10.72,32.42c.13-.03.26-.09.41-.11,1.61-1.08.86-.73-.41.11Z"/>
  <path class="cls-1" d="M356.36,105.92c.08-.02.11-.05.18-.07-.08,0-.18,0-.25,0l.07.06Z"/>
  <path class="cls-1" d="M350.47,107.33c2.42-1.34,3.87-1.43,5.82-1.47l-2.29-2.21c-1.16,1.26-2.34,2.47-3.53,3.68Z"/>
  <path class="cls-1" d="M119.62,104.53l4.12,1.08c-5.13.91-8.74.2-4.9,1.58.78-2.64,16.25.86,17.01-1.81l2.71.75c-.79-.08-.92.08-1.7,0,5.27,1.64,4.1-1.71,10.97-.89,2.39.36,4.04.84,2.38,1.07l5.39-.36c1.55.14,1.15.59-.4.45l8.18.25-.07.08c1.19-.36,3.86-.88,5.17-1.09,2.05.5-1.06.23-.54.6l4.56-.42c1.81.8-1.98,1.28-5.1,1.02,4.08,2.92,3.79-.46,12.83,1.55l-4.29.14c2.68,1.67,6.04,1.27,10.83,2.46-1.13-.56-9.56-2.88-4.62-3.32,1.37.27,3.19.46,5.87.03-.02.97,2.58.84,5.82.92l-.28,1.27c3.52-.22,3.27-.88,5.35-1.37,3.9.29,4.67,1.3,5.55,2.17,6.24.44-4.26-1.75,3.15-1.71,5.18.69,8.85.28,15.09-.29,3.62.56-.66.76.63,1.17l3.26-.92c.79.05.52.35.39.51,2.73-.32.26-1.27,4.54-1.5,1.19-1.38,8.71,2.3,14.04.8,1.29.39-.65.77-.26,1.27,7.28-.89,6.24-.62,12.21-1.94l5.06.92c-3.71-1.03,1.07-2.06,5.24-2.96-1.32-.48-2.44-.9-3.19-1.1l6.65-.61c.8.22.13.65-.97,1.17.45-.1.89-.2,1.22-.29,2.37.5,1.13,1.22-.58,1.92-.81-.26-1.61-.54-2.39-.82-1.65.76-3.2,1.6-2.87,2.36.43-.14,1.27-.26,2.19-.32-.43.21-.71.39-.51.52.22.14.92-.14,2.02-.45l1.5,1.44.37-.56,8.72.95c3.12-.69,6.04-1.59,9.41-2.39,3.37-.78,7.19-1.52,12.12-1.9-2.43,1.09-.49,1.72-.6,2.96-2.73-1.26-7.67.7-12.82.44,2.68.12,2.1.72,1.41.93,3.05-.4,6.11-.83,9.16-1.29-.19,1.02,1.96.73,4.37,1.11-1.86-1.94,6.81-1.53,10.51-2.26.26.67-.61,1.38-5.17,1.36,5.09,1.37,6.4-2.56,11.38-1.52-1.11.07-1.71,0-2.14.36,1.28-.36,3.52-.5,5.24-.46,1.73.02,2.96.19,2.23.54l-1.11.09c7.4-.14,22.48-1.74,23.37-3.65.1.21-.74,2.15-1.15,2.54l6.23-3.58,6.11-3.73c-.95,1.61,3.98,4.44-2,6.1,1.78-.06,4-.05,7.6-1.17-1.23,0-3.28-1.61-1.68-1.99,4.7.86,3.21.34,8.96.78-1.84-.02-.25-2.55,2.53-3.07-.37.42.66,2.17-.32,2.61l6.52-3.6c-1.65.74.09,1.93,1.79,2.23-.82-.26,6.02-1.38,7.82-2.04l-3.07.19c1.98-.38,3.41-.87,4.54-1.44,1.13-.6,1.98-1.25,2.83-1.91.84-.66,1.68-1.32,2.78-1.94,1.1-.64,2.48-1.16,4.36-1.76-.77.73-1.45,3.46,2.51,2.5.72-.83,2.26-2.78,4.38-4.88,2.11-2.14,4.73-4.55,7.8-6.14l1.48.15c1.54-.87,3.03-1.77,4.4-2.73-.96,1.46-3.32,3.96-6.09,6.31-2.74,2.36-5.73,4.91-8,6.31,3.04-.44,1.07.54,5.32-1.07,1.71.01-2.01,1.77-3.28,2.2,3.39-1.02,6.75-2.16,10.13-3.24-.47-.54,1.32-1.57,3.17-2.73,1.85-1.13,3.7-2.48,3.22-2.87-1.7,1.21-3.47,2.26-5.2,3.22-1.74.97-3.43,1.79-5.16,2.69-.45-.55.78-2.01,2.97-3.63,2.19-1.69,5.39-3.53,8.64-5.61.96-.35,1.03.34.84,1.18-.18.84-.63,1.8-.44,1.95.35-.47,1.93-1.73,3.36-3.19,1.46-1.43,2.66-3.09,3.03-3.33-.55,1.18-1.23,2.31-1.99,3.38,2.01-1.59,3-3.7,3.65-5.82.65-2.15,1.13-4.29,2.05-7.14.14-1,.65-2.51.86-3.85.25-1.34.28-2.5-.15-2.61-.5,1.79-2.04,2.84-3.55,3.16-1.51.32-2.99.03-3.62-.71.02-.26.22-2.25-.05-4.51-.2-2.25-.93-4.67-1.13-5.68-.24-1.48.93-1.04,2.12-.37,1.18.65,2.37,1.57,2.21.12-.37.04-1.6-1.22-2.1-1.72-.4-.89-.05-.89.09-1.08.14-.19.09-.63-1.28-2.27-.74.12-2.08-1.51-2.9-2.41-.41-.45-.66-.73-.58-.57.08.16.5.78,1.33,2.19-1.48-1.37-2.19-2.14-2.94-3.01-.76-.86-1.57-1.81-3.4-3.23.3.81-.98.72-2.72.28-1.75-.44-3.97-1.24-5.66-2.09.38-.17-.09-1-.33-1.4-1.62-1.06-3.04-2.04-4.35-2.95-1.34-.87-2.58-1.68-3.81-2.48-2.43-1.65-4.93-3.05-8.16-4.72-.43-.64-3.47-2.44-1.85-2.35-1.06-.23-2.13-.21-4.18-1.13-3.48-2.91,4.64,1.95,2.21-.74-.3.3-1.73-.08-3.49-.61-1.78-.49-3.87-1.15-5.45-1.53.23.76,1.9,1.52,3.92,2.19,2.03.65,4.33,1.39,5.91,1.82-.35.77-1.98.96-4.39.67-1.19-.17-2.64-.34-4.2-.68-1.57-.31-3.25-.8-5.08-1.26-5.71-1.7-2.03-1.93-3.08-2.07-10.49-4.04-9.9-.35-18.41-4.14-3.26-2.01.41-2.11-.17-3.07,2.42.43,4.17,1.14,5.71,1.85,1.54.7,2.88,1.36,4.46,1.86-1.23-.59-2.49-1.12-3.74-1.69.8.06,2,.26,3.2.55,1.19.31,2.39.74,3.18,1.17-1.31-.99-5.85-2.49-11.1-4.04-5.26-1.52-11.24-3.05-15.4-4.42-1.6.02-4.28-.2-3.14.5l2.72.45c2.27,1.39-5.31.05-2,1.2-1.86-.11-3.84-.14-5.99-.29-2.14-.17-4.43-.52-6.93-1.21l-.74-1.38c.04.38,3.2,1.3,4.7,1.23-2.21.12-7.52-3.09-10.14-1.88,1.15.47,2.29.95,3.43,1.45-1.86-.04-3.98.12-6.18.11-2.2-.01-4.48-.13-6.72-.65,1.88,1.51,1.07.01,4.06,1.91-2.49-2.21,11.5,1.99,7.36-.59,2.98,2.23,5.57,1.67,9.54,3.92-.05-.42-1.35-1.06,2.35-.12.19-.08.62-.15.89-.18.11.04.15.05.25.08-.07-.03-.12-.06-.2-.09.17-.03.19-.04-.07-.03-.86-.35-1.54-.7-1.79-.98,2.06-.58,8,.8,10.12.77,2.17.72-1.03.23.08.94l3.15.04c.09.95,5.48,2.89.18,2.12,1.54.4,3.1.77,4.63,1.22,2.59,1.22,6.25,2.43,8.62,2.8,2.09.82,5.73.73,3.65.81l7.26,1.87v.24c1.7.68,3.48,1.26,5.29,1.82,1.83.54,3.63,1.22,5.49,1.87.92.34,1.86.67,2.77,1.07.91.41,1.82.84,2.72,1.3,1.81.92,3.6,1.96,5.26,3.31,1.15.46,2.32.92,3.65,1.53,1.33.61,2.76,1.47,4.49,2.59l.31,1.07c1.46.63,3.33,2.09,5.07,3.33,1.75,1.24,3.3,2.33,4.05,2.38.78,1.81,3.69,3.99,6.36,6.41,1.34,1.21,2.63,2.47,3.64,3.73,1.01,1.24,1.78,2.51,2.14,3.45l.98-.29c.62,1.39,1.14,2.8,1.55,4.33.39,1.53.71,3.2.66,5.03l.93-.11c.15,1.7-.58,3.87-2.06,5.55-1.45,1.74-3.69,3.1-6.23,4.52.2-.49,1.48-1.11,2.38-1.51-1.61.51-3.19,1.18-4.88,1.97-1.68.78-3.47,1.71-5.31,2.59-3.63,1.79-7.17,3.68-10.81,3.99-1.59.85-2.85,1.13-4.09,1.29.16-.05.29-.11.4-.18-.18.04-.43.12-.7.21-.78.1-1.61.13-2.49.23.77,0,1.51.01,2.12-.11-1.3.41-3.27,1.05-5.17,1.81l-1.09-.7c-.16.05-.28.1-.44.15-2.01.19-1.43.87-.21,1.28-.95.42-1.8.86-2.45,1.28-1.96-1.13-5.09,1.74-7.62.64-.29.27-1.04.61-2.04.95-1,.31-2.22.68-3.44,1.05-2.43.76-4.81,1.62-5.19,2.56-.11-.21-.72-.2.36-.42-2.29.22-4.57.38-6.51,1.2l-1.15-1.05-2.33,1.23-2.35,1.16c-3.12-.32-4.41-.58-1.57-1.93-6.99,2.45-5.75,1.34-11.74,3.46l.22-.82c-1.1.14-2.5.57-3.8.9-1.31.3-2.51.51-3.21.24-1.27-.27-3.43-.28-6.15-.15-2.73.07-6.03.26-9.57.48-3.55.15-7.33.33-11.04.37-3.71,0-7.31-.03-10.5-.34,2.51,2.29-5.93-.95-6.41.87-.75-.54-2.52-.82-.47-1.33-6.5.59-9.76-.8-14.25.7-.74-.56,1.39-.8.73-1.13-.52.12-2.07.47-2.74.14-.66-.33.95-.46,1.98-.69-6.64.07-7.33,1.75-7.83,3.34-3.37-.79-5.05-.7-7.5.31-1.17-.54-3.12-1.11,1.02-1.24-2.33-.1-14.21-.99-14.47.28-.72-.34-3.25-.17-3.87-.03-5.22-.19-5.68-.3-10.81-.32l1.42.25c-2.06,1.49-4.27.23-8.42.3l.12-.15c-9.45-1.38-4.11.41-13.43-1.15l.48.97c-.94,2.05-8.25-1.5-13.7-.92l1.94.62c-3,.6-8.18-3.13-11.14-3.51-.64-.21,1.04-.24,1.95-.34-7.73-1.55-1.06,1.21-6.88,1.26-1.04-.73,1.45-1.66-2.44-1.96-1.92-.65-11.43,1.68-16.69.08,1.15.58,2.29,1.17-.43,1.42-4.14-.02-11.06-2.57-14.88-1.15-.52-.17-.71-.32-.72-.45-3.18.25-10.3.08-12.26.85-2.7-3.47-19.73.29-19.45-2.76l-9.71-.55.28-.29c-6.18-.68-8.43-.13-10.67.43-1.42-.32-.35-.52-.22-.67-9.01-1.34-9.91-1.3-17.63-.43l-.7-1.06c-2.11.4-12.94-2.71-21.92-2.42.1-.1.3-.28,1.02-.35-5.06.11-10.9-1.15-15.74-2.37-4.87-1.2-8.67-2.4-10.88-1.25-2.06-.39-4.13-.86-6.13-1.53,1.8.95,2.65,1.39,2.88,1.68.24.28-.12.36-.63.38-1.01.06-2.65-.15-1.16.82-.8-.27-1.64-.74-2.42-1.21-.75-.51-1.44-1.02-1.89-1.47-.88-.92-.93-1.36.83-.43l.47.45c.55-.25.26-.7-.42-1.27-.33-.3-.76-.64-1.25-.98-.49-.35-1.03-.7-1.55-1.12-.52-.4-1.06-.81-1.56-1.2-.47-.42-.91-.83-1.27-1.19-.73-.71-1.09-1.3-.84-1.5-5.76-5.26-9.65-12.37-11.32-19.67-.84-3.65-1.14-7.36-.91-10.97.07-1.82.34-3.52.77-4.87.22-.69.49-1.27.8-1.77.31-.49.66-.89,1.09-1.28-.59-.12-1.21-.17-1.87-.13.82-1.01,1.94-1.81,3.33-2.44.62-.1,1.1.02,1.05.3-.04.29-.69.68-1.84,1.39.79-.04,1.75-.72,2.78-1.41,1-.69,1.96-1.4,1.96-1.57,1.79-.3,2.6-.28,2.75-.13.15.16-.33.47-.96.79-1.26.65-2.89,1.43-1.91,1.17.89-.29,1.85-.55,2.86-.82h-.72c2.35-1.15,2.47-1.82,7.08-2.77,2.97-.36,1.69.55,2.85.35.02.1.41.06,1.77-.35,2.26-.47,4.53-.89,6.79-1.33l-2.95-.56c2.88-1.19,6.39-1.28,2.99-1.9,5,.95,25.46-4.48,28.43-4.33,4.07-1.62,8.24-2.41,13.44-3.21-1.33,0-2.33-1.15,2.17-1.79-1.17,2.92,8.38-.31,12.32,1.02-3.44-.73,12.66-2.41,7.3-3.38,3.78-.37.39.95,3.32,1.14,8.74-2.43,19.71-2.35,30.68-4.16.13-.37-1.79-.66.5-1.49l6.05.96c2.15-.46,1.75-2.27,5.89-1.55-.6-.22-1.5-.56-.05-.86,21.82-.98,44.18-6.37,66.52-4.75-3.04-.47-1.05-.68,1.23-.86-1.5-.06-.03-.87-.35-1.32l9.34.68c1.6-1.45,9.91-.68,10.81-2.01l-2.92.4c3.82-1.72-5.66-2.99-5.21-4.94-4.26,1.98-11.73-1.75-18.74,1.23-1.62-.26,1.31-.72.42-1.1-1.76.96-3.94,1.31-8.05,1.27l.44-.24c-11.43,1.17-16.4.81-29.31,1.59l1.05.85c-2.77.15-3.39-.09-4.7-.17-3.01,1.76,7.76-.74,5.04,1.15-1.93-.79-6.79-.26-11.51.24-4.72.47-9.28.96-10.65.03-4.24.51,1.37.94-2.86,1.44l-1.2-.45-.98.89c-2.79.22-4.29-.35-4.45-.83.68-.03,1.9-.38,2.62-.51-3.7-.26-10.12,1.58-11.39,1.51l4.12-.18c-11.48,2.02-25.67,3.4-36.6,6.34l.91.31c-8.34,2.21-6.87.62-16.11,2.58l.32-.16c-1.78.77-4.22,1.43-6.77,1.83,2.25-.93-4.59-.22-1.62-1.33-9.02,2.5-4.41,1.51-10.16,4.26l-1.53-.47c-1.93,1.05-2.04,1.42-6.62,2.49,3.67-1.36-3.17-.54.92-2.19-10.02.34-14.07,4.45-18.98,3.08-4.02,2.94,8.6-.64,6.21.32,2.22.23-3.36,2.24-6.43,2.69-3.09.63-5.8-1.51-13.55.26.77-.16.79-.32,1.57-.49-3.02.13-5.53,1.95-9.28,1.91-.86.82-2.02,1.06-3.05,1.35-1.02.27-1.88.6-1.95,1.45,2.5-.87,4.84-1.44,7.17-2.1-1.97.66-3.79,1.59-6.05,2.62-1.12.52-2.33,1.06-3.67,1.72-1.33.66-2.83,1.42-4.39,2.64.1-.33.52-.99,1.14-1.65.61-.66,1.4-1.32,2.08-1.77-1.14.3-2.12.99-3,1.8-.89.82-1.68,1.75-2.62,2.72-.23-.37.06-1.21.84-2.21.77-1,2.06-2.06,3.53-2.89,2.97-1.68,6.39-2.44,8.45-3.53-1.13-.09-3.27.71-4.92,1.44-1.65.73-2.79,1.32-1.85-.03-.71.89-1.6,1.58-2.62,2.33-1.01.75-2.18,1.57-3.28,2.7-1.11,1.12-2.09,2.56-2.68,4.1-.59,1.54-.83,3.19-.64,4.79l-.87-.56c-.03,1.06.19,3.1.18,4.79-.4-1.05-.77-2.11-1.05-3.28.11,1.32.16,2.49.12,3.68-.07,1.18-.15,2.36-.22,3.52-.11,1.18-.1,2.35-.04,3.52.03,1.18.28,2.32.64,3.45-.53-2.4-.58-3.79-.56-4.53.02-.74.18-.85.38-.79.41.12.92.9,1.1-1.13.25,1.45.54,2.62.67,3.61.19.98.32,1.78.37,2.48.08,1.39.07,2.31-.06,3.32-.13,1.01-.14,2.06.13,3.67.3,1.6,1,3.74,2.68,6.7-.46-.79-1.16-2.38-1.4-3.51-.25-1.13-.19-1.72.56-.52.38,1.22.98,2.56,1.42,3.87.52,1.26.98,2.44,1.17,3.25,2.6,3.68,2.67,3.18,2.3,2.24-.32-.98-.93-2.48.36-1.11.83,3.1,2.96,3.2,5.81,5.62l-.66.7c1.66,1.88,2.82,2.73,3.58,3.17.75.44,1.14.43,1.5.39.36-.04.7-.09,1.35.22.33.16.74.4,1.28.79.56.36,1.26.83,2.15,1.49-1.28-.27-2.63-.51-3.9-.92l1.01.62,1.05.55c.7.36,1.4.73,2.1,1.07-.46.17-.92.31-1.39.45,2.45.97,4.02,1.51,5.54,2.18,1.52.63,2.99,1.38,5.29,2.27-.87-1.02,1.14-1.37,5.2-.39,2.66,1.19-1.79.59,4.08,1.68-1.42.33-3.08.8-5.42-.73-.34.25-1.47.23-1.82.45,1.45.77,3.39,1.27,5.22,1.62,1.83.34,3.55.5,4.62.67-.82-.18-1.79-.39-2.28-.62,2.94.09,5.82.04,8.67-.07,1.28.52.2.68-.88.84,1.72.11,2.95-.2,5.43-.03-.73.71-.64,1.55-4.24,1.52,2.72.02,5.4,0,8.05-.05.49.39,3.95,1.31,2.9,1.51,4.32.88,10.84-.5,16.58.61.31-.12.93-.22,2.17-.22,5.42.66,10.16,2.01,16.7,1.48l3.55,1.69c5.08.08-4.81-2.16,3.64-2.02,5.99.02,2.13,1.37,4.19,1.93,3.02-.49,8.27-1.54,13.66,0-1.83.14-3.24-.18-4.94-.2ZM182.03,107.65c-1.22.14-3.66.65-4.52.04,1.43-1.04,2.47-.46,4.52-.04ZM277,107.98c-.9.31-2.29.16-3.86-.23,1.14-.06,2.43-.02,3.86.23ZM359.17,21.67c.05,0,.09,0,.14-.01,2.45,1.06,1.59.67-.14.01ZM353.96,19.82c-.57,0-.57.14-.37.32.44-.16,1.63.16,2.97.6-.31-.34-.95-.71-2.6-.92ZM29.78,34.09h-1.11c2.34-.81,1.72-.42,1.11,0Z"/>
  <path class="cls-1" d="M266.22,109.19c-.34-.17-.43-.35-.51-.53-.48.16-.49.34.51.53Z"/>
  <path class="cls-1" d="M80.83,101.91l-.19-.03c-.11.05-.17.1-.21.16l.39-.13Z"/>
  <path class="cls-1" d="M433.85,53.34c.57,1.19.77,1.91.83,2.44.24-.04.17-.71-.83-2.44Z"/>
  <path class="cls-1" d="M325.02,15.39l3.53.37c-1.69-.26-2.26-.58-3.08-.88.04.24.65.67-.44.5Z"/>
  <path class="cls-1" d="M295.21,5.11c-.53.06-1.11-.12-1.63-.06l.09.46c2.22.22,3.81.06,1.54-.41Z"/>
  <path class="cls-1" d="M322.3,11.7c-.15-.84-2.4-.96-4.9-1.17.15.02.29.03.44.07-.9,1.01,1.79,1.04,4.46,1.11Z"/>
  <path class="cls-1" d="M316.82,10.47c-.77-.08-1.55-.17-2.29-.32-.36.41.91.23,2.29.32Z"/>
  <path class="cls-1" d="M347.04,18.67c-1.1-.46-.95.85-1.53.39-1.5.67,7.88.6,1.53-.39Z"/>
  <polygon class="cls-1" points="320.72 8.73 321.45 9.86 322.97 9.29 320.72 8.73"/>
  <path class="cls-1" d="M340.08,13l-3.87-1.06c.03.18-.49.17-1.12.12,2.41.52,5.02,1.24,4.99.93Z"/>
  <path class="cls-1" d="M335.09,12.07c-1.25-.28-2.46-.47-3.2-.44.69.11,2.16.35,3.2.44Z"/>
  <polygon class="cls-1" points="326.19 9.32 327.32 9.73 330.1 10.31 326.19 9.32"/>
  <path class="cls-1" d="M381.31,25.06c1.4.4,2.78.88,4.16,1.36.54-.15-.48-.8-2.03-1.3-1.06-.17-2.63-.6-2.12-.06Z"/>
  <path class="cls-1" d="M369.71,18.06c1.07.56,1.08.81,1.61,1.34l.52-1.14c-.71-.07-1.41-.15-2.13-.2Z"/>
  <path class="cls-1" d="M381.96,22.07c.54-.2,6.36,1.43,1.09-.56-.55.16-4.8-1.13-1.09.56Z"/>
  <path class="cls-1" d="M433.85,61.43c-.12-.36-.23-.72-.36-1.08l-1.87.81c.74.06,1.48.15,2.23.27Z"/>
  <path class="cls-1" d="M395.53,99.51c5.24-.95.87-1.53,5.64-2.24,1.06-.79-3.9.58-2.79-.16-2.93,1.34-4.62,1.51-2.86,2.41Z"/>
  <path class="cls-1" d="M398.39,97.1c.47-.21.96-.45,1.48-.73-.85.37-1.24.58-1.48.73Z"/>
  <polygon class="cls-1" points="230.9 7.21 234.24 7.44 232.06 6.88 230.9 7.21"/>
  <path class="cls-1" d="M237.19,5.33l.85,1.25,1.93-1.29c-.75.1-2.2.3-2.79.04Z"/>
  <path class="cls-1" d="M191.2,110.68l.27-.3c-.5-.36-1.28-.42-2.85-.54l2.58.84Z"/>
  <polygon class="cls-1" points="145.93 107.32 146.7 107.4 145.32 106.13 145.93 107.32"/>
  <path class="cls-1" d="M107.82,106.17c1.55.17,3.39.06,4.94.22-3.4-.04-5.25-1.71-4.94-.22Z"/>
</svg>