<?xml version="1.0" encoding="UTF-8"?>
<svg id="Layer_1" xmlns="http://www.w3.org/2000/svg" viewBox="0 0 311.29 308.81">
  <defs>
    <style>
      .cls-1 {
        fill: #34204d;
      }

      .cls-2 {
        stroke: #32204d;
        stroke-width: 2px;
      }

      .cls-2, .cls-3 {
        fill: #fff;
        stroke-miterlimit: 10;
      }

      .cls-3 {
        stroke: #34204d;
        stroke-width: 3px;
      }
    </style>
  </defs>
  <path d="M193.04,308.63c-.17.08-.29.19-.39.18-.26-.03-.37-.42-.17-.61.07-.07.29-.1.33-.05.11.14.16.32.23.48Z"/>
  <path class="cls-1" d="M152.31,77.74c5.6-14.18,12.86-33.42,20.64-56.75-.33,13.28-.18,31.66,1.93,53.53,3.16,32.66,7.32,38.13,11.45,41.03,9.52,6.7,23.36,1.48,48.39-8.09,20.51-7.85,36.67-16.56,47.86-23.27-10.11,8.48-23.57,20.36-38.62,35.53-20.58,20.74-23.72,27.03-22,31.54,1.9,5.02,9.37,6.7,32.25,9.03,13.52,1.38,32.44,2.98,55.46,3.87-7.54,1.28-18.53,3.29-31.7,6.24-39.75,8.92-59.7,13.59-63.75,24.07-2.09,5.4-.73,10.92,23.53,53.09,8.22,14.29,15.25,26.15,20.32,34.62-7.51-6.24-18.44-15.17-31.86-25.63-46.12-35.95-52.34-35.87-55.85-34.99-8.86,2.23-14.25,17.16-25.37,45.9-3.4,8.78-5.89,16.31-7.62,21.86-.19-5.66-.81-13.81-2.74-23.41-3.65-18.1-8.08-40.08-20.38-43.7-8.81-2.59-18.62,5.32-38.26,21.14-13.98,11.26-22.3,20.7-23.39,19.78-1.14-.97,7.85-11.35,16.51-27.37,10.47-19.37,19.62-36.32,13.54-47.72-3.62-6.79-10.02-6.7-43.86-18.06-11.06-3.71-20.19-7.02-26.57-9.38,4.03-.51,10.14-1.27,17.57-2.09,51.98-5.8,61.21-3.26,65.76-10.45,7.33-11.57-6.32-34.35-19.35-56.11-4.62-7.72-8.98-13.79-12.07-17.87,5.49,3.64,19.62,13.03,26.91,17.87,28.1,18.67,33.56,22.52,39.99,20.64,7.22-2.11,11.09-9.04,21.28-34.83Z"/>
  <path class="cls-2" d="M144.25,63.41c5.6-14.18,12.86-33.42,20.64-56.75-.33,13.28-.18,31.66,1.93,53.53,3.16,32.66,7.32,38.13,11.45,41.03,9.52,6.7,23.36,1.48,48.39-8.09,20.51-7.85,36.67-16.56,47.86-23.27-10.11,8.48-23.57,20.36-38.62,35.53-20.58,20.74-23.72,27.03-22,31.54,1.9,5.02,9.37,6.7,32.25,9.03,13.52,1.38,32.44,2.98,55.46,3.87-7.54,1.28-18.53,3.29-31.7,6.24-39.75,8.92-59.7,13.59-63.75,24.07-2.09,5.4-.73,10.92,23.53,53.09,8.22,14.29,15.25,26.15,20.32,34.62-7.51-6.24-18.44-15.17-31.86-25.63-46.12-35.95-52.34-35.87-55.85-34.99-8.86,2.23-14.25,17.16-25.37,45.9-3.4,8.78-5.89,16.31-7.62,21.86-.19-5.66-.81-13.81-2.74-23.41-3.65-18.1-8.08-40.08-20.38-43.7-8.81-2.59-18.62,5.32-38.26,21.14-13.98,11.26-22.3,20.7-23.39,19.78-1.14-.97,7.85-11.35,16.51-27.37,10.47-19.37,19.62-36.32,13.54-47.72-3.62-6.79-10.02-6.7-43.86-18.06-11.06-3.71-20.19-7.02-26.57-9.38,4.03-.51,10.14-1.27,17.57-2.09,51.98-5.8,61.21-3.26,65.76-10.45,7.33-11.57-6.32-34.35-19.35-56.11-4.62-7.72-8.98-13.79-12.07-17.87,5.49,3.64,19.62,13.03,26.91,17.87,28.1,18.67,33.56,22.52,39.99,20.64,7.22-2.11,11.09-9.04,21.28-34.83Z"/>
  <path class="cls-3" d="M98.34,163.16l.06,22.72,4.48.15v10.19s-26.94,4.24-26.94,4.24v-10.19s5.43-1.71,5.43-1.71l-.19-53.04h-5.41s.03-10.09.03-10.09l22.86-3.6c12.22-1.92,24.85-1.77,27.06,12.25,2.02,12.87-5.22,19.26-15.44,21.83.02.1-.06.22-.04.33,8.01.88,10.21,4.61,12.58,13.03l2.18,7.81c.9,3.29,1.67,5.2,3.8,4.87,1.48-.23,2.31-1.01,3.27-2.12l3.65,3.93c-2.5,5.22-6.84,9.55-12.95,10.51-8.42,1.32-11.92-4.02-13.91-11.86l-3-11.86c-1.48-5.77-2.8-8.14-6.41-7.57l-1.11.17ZM98.38,154.37l.83-.13c7.03-1.11,10.4-6.25,8.98-15.24-.92-5.86-3.96-7.1-8.68-6.35l-1.3.2.16,21.52Z"/>
  <path class="cls-3" d="M198.67,156.64c-2.24-14.23-29.18-2.81-33.16-28.13-2.45-15.59,6.88-26.17,19.75-28.19,8.42-1.32,12.98,2.35,14.56,2.11,1.3-.2,1.75-1.56,2.43-3.81l6.48-1.02.65,22.84-8.51,1.34c-2.15-8.24-5.67-13.15-13.82-11.87-5,.79-8.26,3.55-7.32,9.52,2.01,12.76,27.83,2.7,31.77,27.7,2.52,16.01-7.5,27.66-19.81,29.6-9.35,1.47-13.26-2.31-15.39-1.97-1.3.2-1.76,1.46-2.72,5.04l-7.5,1.18-.82-25.71,8.61-1.35c1.93,9.24,6.87,14.14,15.66,12.76,7.03-1.11,10-4.57,9.14-10.01Z"/>
  <path class="cls-3" d="M227.36,142.06l17.58-2.77-.12-20.67-4.93.03v-10.19s26.94-4.24,26.94-4.24l-.03,10.08-4.97,1.53.13,53.27,4.94.08.07,10.07-26.93,4.24-.07-10.07,4.96-1.64-.04-21.33-17.58,2.77.04,21.33,4.94.08.07,10.07-26.84,4.22-.07-10.07,4.96-1.64-.11-53.16-4.93.02v-10.19s26.85-4.22,26.85-4.22l-.03,10.08-4.97,1.53.14,20.78Z"/>
  <path class="cls-3" d="M46.35,164.38c1.89,12.03,6.37,16.37,13.68,15.22,7.4-1.16,11.51-6.42,13.28-19.24l8.09.76c-1.49,21.25-14.08,28.05-23.8,29.58-14.44,2.27-26.25-4.13-29.51-24.84-5.02-31.91,11.8-49.78,26.14-52.04,9.81-1.54,12.96,2.78,14.72,2.51,1.39-.22,1.88-1.9,2.55-4.26l6.85-1.08.58,25.96-8.33,1.31c-1.85-9.36-4.19-16.39-12.33-15.11-14.16,2.23-14.07,27.52-11.91,41.22Z"/>
  <path class="cls-3" d="M151.15,167.09l-18.32,2.88-2.38,9.6,5.59-.02.07,10.07-21.47,3.38-.07-10.07,5.05-1.65,19.03-67.11,14.99-2.36,18.08,61.27,5.59-.02.07,10.07-29.52,4.64-.07-10.07,5.7-1.75-2.34-8.85ZM134.35,160.09c4.89-.77,9.78-1.55,14.67-2.32-2.21-8.19-4.41-16.39-6.62-24.58-2.68,8.97-5.37,17.94-8.05,26.9Z"/>
</svg>