<?xml version="1.0" encoding="UTF-8"?>
<svg id="Layer_1" xmlns="http://www.w3.org/2000/svg" viewBox="0 0 260.05 278.65">
  <path fill="#ececec" d="M99.67,126.35c1.45-.02,2.76.1,4-.11.77-.14,1.65-.64,2.12-1.26.77-1,1.53-2.16,1.79-3.36,1.79-8.49,6.88-15.02,12.5-21.21,6.73-7.41,14.69-13.12,24.29-16.26,13.59-4.45,27.01-4.68,39.82,2.58,8.73,4.95,14.65,12.54,18.95,21.46,2.29,4.76,3.7,9.8,4.72,14.97,5.86,29.84,11.76,59.66,17.61,89.5.26,1.34,1,2.01,1.96,2.86,3.03,2.68,6.46,1.55,9.78,1.34,3.93-.25,7.8-.32,11.59.97,9.16,3.11,14.01,14.48,9.65,22.84-2.14,4.09-5.92,6.43-9.89,8.37-4.24,2.07-8.74,3.12-13.53,2.86-4.24-.22-8.38.79-12.3,2.18-9.76,3.49-19.84,5.6-30.06,6.9-4.45.56-9.08.46-13.55-.79-4.92-1.37-8-4.39-8.75-9.55-.21-1.43-.46-2.86-.61-4.3-.32-3.03.57-5.71,2.41-8.11,1.47-1.92,2.86-3.9,4.41-5.74,2.56-3.04,6.2-4.24,9.76-5.61,2.63-1.01,5.18-2.24,7.7-3.51,1.2-.61,1.47-1.68,1.25-3.12-3.89-25.01-8.37-49.92-13.3-74.74-.75-3.78-1.02-7.65-1.68-11.45-.78-4.5-2.09-8.86-4.46-12.82-4.05-6.75-9.24-9-16.96-7.63-10.53,1.87-18.59,7.59-25.18,15.73-7.85,9.69-12.51,20.93-15.7,32.82-1.94,7.23-3.81,14.56-3.66,22.09.14,7.08-.09,14.19,1.56,21.23,2.03,8.66,3.52,17.45,5.24,26.18.8,4.04,2.58,5.58,6.68,5.77,3.69.17,7.39.12,11.06.49,2.58.26,5.15.92,7.66,1.63,4.32,1.22,6.77,4.42,8,8.51.95,3.17,1.57,6.45,2.24,9.7.12.6-.12,1.36-.41,1.95-2.74,5.66-7.41,8.92-13.27,10.87-8.21,2.73-13.14,2.34-22.75,3.94-13.12,2.18-16.45,4.96-25.89,3.9-6.78-.76-9.35-2.67-10.76-4.14-3.48-3.64-4.46-9.39-3.08-13.76.93-2.97,3.4-6.72,6.73-9.32,1.89-1.48,3.31-3.6,5.04-5.89.29-.38.02-1.24-.1-1.85-4.61-23.42-9.18-46.84-13.89-70.23-.6-2.99-.15-5.84.05-8.75.07-.95.08-1.93-.1-2.86-2.66-13.63-8.1-40.87-8.1-40.87-1.11-4.03-3.31-15.96-7.7-39.8-1.92-10.43-4.7-20.72-5.97-31.25,0,0-.42-3.7-1.72-8.45-.64-2.33-.58-1.29-1.49-4.25-.38-1.23-.49-1.74-.99-2.06-.97-.62-2.33.16-4.02.79-.27.1-2.22.47-6.11,1.2-3.87.73-8.64,1.63-14.13.7-5.78-.98-9.79-3.55-11.05-4.41-3.5-2.38-5.51-4.95-7.16-7.1-3.65-4.75-5.22-9.02-7.07-14.21C1.86,9.3-1.14.9.46.07c.89-.47,2.02,1.58,6.33,4.08,3.18,1.84,5.86,2.63,6.5,2.82,3.99,1.15,7.33,1.03,10.38.9,1.85-.08,1.7-.12,7.8-.92,5.52-.73,5.6-.53,10.01-1.15,2.68-.38,5.78-.81,9.69-1.71,3.9-.89,4.95-1.39,10.92-2.77,2.53-.58,4.76-1.05,7.64-.69,1.74.22,2.98.37,4.09,1.04,3.61,2.15,2.93,7.88,4.21,16.77.39,2.74.18.28,2.76,12.36,2.41,11.3,4,20.02,4.34,21.87,1.6,8.75,5.33,28.05,14.54,73.7Z"/>
</svg>