<?xml version="1.0" encoding="UTF-8"?>
<svg id="Layer_1" xmlns="http://www.w3.org/2000/svg" viewBox="0 0 565.38 219.05">
  <defs>
    <style>
      .cls-1 {
        fill: #fff;
      }
    </style>
  </defs>
  <path class="cls-1" d="M436.58,151.8c.25-7.78,1.33-16.47,4.97-24.65,2.23-5.01,5.37-9.33,9.61-12.85,4.69-3.89,10.15-5.16,16.09-4.78,10.7.68,17.64,7,22.97,15.56,3.81,6.12,5.82,12.92,6.95,20,.68,4.29,1.05,8.6.68,12.93-1.01,11.74-4.23,22.67-12,31.86-3.21,3.8-6.91,7.06-12,7.99-8.01,1.46-15.36-.17-21.84-5.23-6.31-4.94-9.94-11.63-12.32-19.08-2.14-6.71-3.08-13.63-3.11-21.73Z"/>
  <g>
    <path d="M59.23,108.15c1.05.19,1.98.47,2.91.49.57.01,1.28-.23,1.71-.61.7-.61,1.42-1.34,1.77-2.17,2.5-5.88,7.11-9.88,12.06-13.55,5.92-4.4,12.49-7.39,19.87-8.29,10.46-1.28,20.19.47,28.41,7.54,5.61,4.82,8.8,11.15,10.64,18.21.98,3.76,1.28,7.61,1.27,11.49-.02,22.4,0,44.8-.03,67.19,0,1,.43,1.6,1.01,2.35,1.8,2.37,4.45,2.04,6.87,2.36,2.87.38,5.69.88,8.24,2.35,6.17,3.56,8.06,12.46,3.72,17.88-2.13,2.65-5.19,3.8-8.34,4.64-3.36.89-6.76,1.01-10.19.14-3.03-.77-6.17-.63-9.2-.17-7.55,1.13-15.14,1.22-22.71.7-3.29-.23-6.63-.96-9.68-2.5-3.36-1.69-5.15-4.31-4.96-8.15.05-1.06.08-2.13.17-3.19.2-2.23,1.23-4.04,2.9-5.51,1.33-1.18,2.62-2.41,4.01-3.52,2.28-1.83,5.08-2.18,7.85-2.67,2.04-.36,4.06-.88,6.06-1.44.96-.27,1.3-1.01,1.35-2.08.75-18.63,1.07-37.27,1.04-55.91,0-2.84.35-5.68.42-8.52.08-3.37-.25-6.7-1.4-9.9-1.96-5.46-5.39-7.82-11.17-7.93-7.87-.15-14.52,2.84-20.44,7.78-7.06,5.89-12.02,13.34-16.03,21.48-2.44,4.95-4.83,9.98-5.79,15.44-.91,5.14-2.09,10.24-1.9,15.57.23,6.55.05,13.11.06,19.67,0,3.03,1.07,4.4,4.01,5.12,2.64.65,5.32,1.14,7.92,1.93,1.83.55,3.59,1.4,5.3,2.27,2.95,1.5,4.26,4.16,4.57,7.29.24,2.43.22,4.89.23,7.33,0,.45-.28.97-.57,1.35-2.79,3.7-6.63,5.39-11.14,5.96-6.32.8-9.83-.18-17-.4-9.8-.29-12.59,1.24-19.27-.87-4.79-1.51-6.38-3.26-7.19-4.53-2-3.12-1.88-7.42-.27-10.38,1.1-2.02,3.41-4.37,6.19-5.78,1.58-.8,2.91-2.13,4.48-3.54.26-.23.19-.89.19-1.35,0-17.58.04-35.16-.03-52.74,0-2.25.72-4.24,1.29-6.32.18-.67.33-1.39.33-2.08.02-10.23-.03-30.69-.03-30.69-.23-3.07-.12-12,.11-29.86.1-7.81-.44-15.65.14-23.44,0,0,.22-2.73-.04-6.35-.13-1.77-.23-1.02-.47-3.28-.09-.88-.28-1.3-.42-1.63-.83-1.85-3.06-2.54-3.85-2.79-1.79-.56-2.62-.25-5.92-.3,0,0-2.25-.03-4.86-.3-1.9-.2-5.44-.57-9.16-2.27-1.33-.61-4.53-2.11-7.29-5.29-2.58-2.97-3.49-6.33-5.2-12.93C.94,8.25-.86,1.33.48.76c.73-.31,1.63,1.57,5.36,4.3,1.45,1.06,2.78,2.04,4.74,2.84,1.98.8,3.79,1.04,7.43,1.51,1.8.23,3.31.35,4.43.44.88.07,2.36.17,4.63.26.99.04,2.84.1,8,.13,4.05.02,4.68,0,6.99.06,4.02.11,5.24.28,6.15.45,2.33.43,3.88.71,5.5,1.79,2.34,1.56,3.36,3.78,3.95,5.11,1.1,2.49,1.18,4.47,1.33,9.41.16,5.7.22,8.56.23,9.32.13,8.51.04,15.04.02,16.42-.09,6.55-.14,21.04,0,55.34Z"/>
    <path d="M525.75,87.18c-.18,11.27,0,31.06-.03,37.33,0,1.82.19,3.53,1.06,5.13.8,1.46.97,3.02.97,4.67-.03,18.13-.02,36.26-.02,54.39,0,2.57,3.61,3.51,3.61,3.51,4.51,3.63,6.99,3.22,8.75,5.2,3.73,4.19,1.37,15.9-5,18.96-3.28,1.58-7.21.66-14.29-.99-2.15-.5-3.2-.82-4.48-1.35-3.46-1.45-6.42-3.72-9.03-6.61-1.75-1.94-3.86-1.87-5.67,0-1.09,1.12-2.31,2.17-3.65,2.95-3.1,1.8-6.31,3.41-9.48,5.1-4.76,2.54-9.88,3.16-15.17,2.74-19.18-1.55-32.99-11.71-43.44-27.16-4.73-7-7.65-14.81-9.79-22.92-.16-.6-.15-1.25-.15-1.88,0-9.8-.03-19.59.03-29.39,0-1.39.17-2.9.74-4.14,3.09-6.86,4.97-14.1,7.02-21.29.9-3.16,2.45-5.76,4.83-8.07,5.63-5.49,11.2-11.05,16.57-16.79,2.7-2.89,5.88-4.43,9.66-4.97,7.99-1.14,15.98-1.26,23.92.42,5.27,1.11,9.85,3.5,13.63,7.38,1.69,1.74,3.83,2.08,6.12,1.71.36-.06.84-.45.97-.8,1.21-3.22,2.05-6.45,1.92-9.99-.22-6.04.32-12.1-.06-18.13-.84-13.44-1.02-13.05-1.04-18.59,0-.55,0-.04,1.04-16.06.21-3.3.43-6.71,2.37-10.53.82-1.62,1.84-3.58,3.95-5.11,1.66-1.21,3.52-1.8,9.86-2.15,5.09-.29,6.71-.06,12.83-.18,3.75-.07,6.44-.13,10.02-.49,5.33-.54,7.99-.8,10.42-1.82,6.45-2.71,8.62-7.91,10.1-7.14,1.25.65.22,4.91-.87,9.4-1.75,7.23-2.63,10.84-5.61,14.22-3.56,4.03-7.91,5.59-9.22,6.05-5,1.73-11.29,1.81-12.09,1.81-3.49.03-5.81-.38-7.89,1.28-1.45,1.16-2.09,2.78-2.48,3.78-.68,1.72-.74,3.1-.81,6.91-.06,3.46-.08,5.19-.06,5.97.17,5.33-.18,8.33-.28,14.54-.2,13.28.39,13.48.24,23.14ZM441.92,146.61c.03,8.36,1,15.49,3.2,22.41,2.45,7.69,6.19,14.59,12.7,19.68,6.68,5.23,14.27,6.9,22.53,5.4,5.25-.95,9.06-4.32,12.38-8.24,8.02-9.48,11.34-20.76,12.38-32.86.38-4.46,0-8.91-.7-13.33-1.16-7.3-3.23-14.31-7.16-20.63-5.49-8.82-12.66-15.35-23.69-16.05-6.12-.39-11.76.92-16.59,4.93-4.37,3.63-7.61,8.09-9.91,13.25-3.76,8.44-4.87,17.4-5.13,25.42Z"/>
    <path d="M228.98,154.74c-9.76.19-19.53.34-29.29.59-3.43.09-6.86.41-10.29.66-.95.07-1.63.51-1.73,1.58-1.54,16.71,8.52,33.36,25.29,38.51,4.53,1.39,9.16,1.5,13.84,1.3,1.99-.09,3.68-.59,5.37-1.68,1.6-1.02,3.45-1.79,5.3-2.25,5.5-1.36,9.63-4.49,12.8-9.11,2.12-3.09,4.34-6.12,6.75-8.99,2.1-2.5,4.63-4.58,8.05-5.06,3.32-.46,6.47-.22,9,2.4,2.24,2.33,2.27,5.18,1.99,8.09-.32,3.39-1.47,6.5-3.18,9.44-2.91,5.03-5.88,10-10.01,14.18-6.06,6.14-13.52,9.71-21.72,11.96-8.18,2.25-16.52,3.2-24.98,2.37-15.64-1.54-28.18-8.69-37.55-21.27-6.51-8.74-10.2-18.68-11.92-29.39-1.32-8.21-1.06-16.43-.25-24.67.86-8.67,2.65-17.12,6.02-25.18,2.98-7.12,6.88-13.66,12.39-19.15,3.48-3.46,7.52-6.14,11.88-8.33,4.16-2.08,8.35-4.11,12.6-5.98,1.4-.61,3.05-.89,4.59-.91,3.51-.06,7.04.07,10.55.24,10.17.49,19.22,3.91,27.19,10.29,6.33,5.07,12.14,10.65,16.98,17.12,1.68,2.25,2.64,5.09,3.65,7.77,2.6,6.91,4.45,14.04,5.62,21.32.36,2.26.08,4.63.06,6.96,0,.28-.21.59-.38.85-1.43,2.12-3.29,3.69-5.75,4.53-4.25,1.44-8.56,2.19-13.11,2.1-9.92-.19-19.85-.06-29.77-.06,0-.08,0-.16,0-.24ZM220.39,134.88c6.33,0,12.66,0,18.98,0,3.4,0,6.8,0,10.2,0,1.45,0,3.43-1.36,3.49-2.51.19-3.72.14-7.43-1.59-10.88-2.29-4.57-5.96-7.68-10.52-9.83-4.84-2.29-9.97-3.43-15.28-3.87-8.04-.66-15.82.43-22.9,4.43-8.1,4.57-13.14,11.22-13.01,20.98.02,1.61.07,1.68,1.67,1.68,9.65,0,19.3,0,28.95,0Z"/>
    <path d="M321.4,154.59c0-3.67.1-7.35-.02-11.02-.2-6.23-.52-12.46-.81-18.7-.22-4.73-.47-9.46-.73-14.2-.07-1.34-1.69-2.89-3.01-2.95-4.86-.2-9.72-.32-14.58-.61-3.11-.18-6.29-.25-9.27-1-4.69-1.18-7.97-4.27-8.96-9.12-1.04-5.1.2-9.69,4.34-13.11,2.48-2.05,5.41-2.35,8.59-1.99,3,.35,6.08.31,9.11.18,7.99-.34,15.98-.64,23.8,1.4,2.13.56,4.22,1.54,6.12,2.67,2,1.19,3.3,3.06,4.01,5.38.62,2.02,1.45,4,2.44,5.86.94,1.76,1.97,1.83,3.53.62,6.03-4.68,12.14-9.32,19.08-12.52,13-5.98,25.78-5.38,37.56,3.05,7.4,5.3,11.22,12.85,11.44,22.08.13,5.47-.85,10.65-3.56,15.47-2.44,4.35-6.2,6.76-11.01,7.56-2.01.33-4.09.48-6.13.41-3.83-.13-6.67-2.09-8.87-5.16-3.01-4.21-4.56-8.97-5.34-14-.47-3-.7-6.03-1.02-9.05-.2-1.89-.57-2.23-2.46-2.23-.43,0-.87.02-1.3,0-1.99-.08-3.69.5-5.12,1.96-5.74,5.83-11.64,11.5-17.22,17.47-3.51,3.75-6.23,8.16-8.23,12.92-.55,1.31-.86,2.8-.9,4.22-.11,4.46-.1,8.93-.03,13.39.11,6.37-.25,12.72.86,19.1.9,5.14.86,10.45,1.2,15.69.14,2.25,1.56,3.93,3.81,4.31,3.75.64,7.47.25,11.2-.34,5.18-.82,10.14-.27,14.73,2.52,4.14,2.52,5.62,6.26,5.34,10.94-.42,7.04-5.1,10.56-11.56,12.02-5.36,1.21-10.81,1.33-16.27,1.09-5.52-.25-11.04-.57-16.56-.82-.82-.04-1.69.05-2.45.31-1.88.63-3.79.63-5.73.63-8.62-.02-17.24.05-25.86-.03-5.63-.05-10.33-2.33-13.67-6.86-5.86-7.95-.93-18.84,8.86-19.94,3.59-.4,7.07.26,10.61.58,3.61.32,7.25.29,10.87.31,1.01,0,1.55-.73,1.62-1.81.34-5.52.72-11.03,1.1-16.54.06-.82.13-1.67.37-2.45.65-2.08.56-4.18.52-6.32-.07-3.79-.02-7.58-.02-11.37-.14,0-.27,0-.41,0Z"/>
    <path class="cls-1" d="M220.39,134.88c-9.65,0-19.3,0-28.95,0-1.6,0-1.65-.07-1.67-1.68-.14-9.76,4.91-16.41,13.01-20.98,7.08-4,14.86-5.09,22.9-4.43,5.31.43,10.44,1.58,15.28,3.87,4.56,2.15,8.23,5.26,10.52,9.83,1.72,3.45,1.77,7.16,1.59,10.88-.06,1.15-2.05,2.51-3.49,2.51-3.4,0-6.8,0-10.2,0-6.33,0-12.66,0-18.98,0Z"/>
  </g>
</svg>