<?xml version="1.0" encoding="iso-8859-1"?>
<!-- Uploaded to: SVG Repo, www.svgrepo.com, Generator: SVG Repo Mixer Tools -->
<svg fill="#34204d" height="800px" width="800px" version="1.1" id="Layer_1" xmlns="http://www.w3.org/2000/svg" xmlns:xlink="http://www.w3.org/1999/xlink" 
	 viewBox="0 0 490.631 490.631" xml:space="preserve">
<g>
	<path d="M489.905,331.813c-2.7-18.4-13.4-34.1-27.8-42.2l5.9-11c5.2-9.4,2.1-20.9-7.3-27.1l-243.8-156.3c4-22.6-6.1-46.6-27.2-58.4
		l-54.2-29.2c-26.6-16.5-60.6-3.1-74,20.9l-55.3,101.1c-13.6,26.1-4.2,59.4,21.9,74l54.2,29.2c27.8,16.8,53.6,1.5,63.7-7.8
		l263.7,122.5c12.2,5.6,22.5-1.4,26.1-8.3l6.9-13c2.8,2.2,5.8,6.3,6.6,10.9c3.4,23.9-16.7,38.6-19.8,40.7
		c-15.6,10.6-55.3-1-60.5-2.1c-62.6-8.3-129.3,27.1-156.4,85.5c-5.2,10.4-1.2,22.2,9.4,27.1c12.6,5.8,22.9-2.1,27.1-9.4
		c19.8-41.7,68.8-68.8,114.7-62.6c5.2,0,55.2,16.1,89.7-5.2C463.005,405.112,495.905,372.313,489.905,331.813z M118.805,192.112
		c-4.2,6.3-12.5,8.3-18.8,5.2l-53.2-29.2c-6.3-3.1-9.4-12.5-5.2-18.8l55.3-101c3.1-4.2,10.2-10.3,18.8-5.2l53.2,29.2
		c6.3,3.1,9.4,12.5,5.2,18.8L118.805,192.112z M408.605,302.612l-240.4-112.4l31.3-57.3l223.7,142.6L408.605,302.612z"/>
</g>
</svg>