<?xml version="1.0" encoding="UTF-8"?>
<svg id="Layer_1" xmlns="http://www.w3.org/2000/svg" viewBox="0 0 523.96 523.96">
  <defs>
    <style>
      .cls-1 {
        fill: #66b4ab;
      }
    </style>
  </defs>
  <path class="cls-1" d="M21.07,168.84c8.04,1.19,16.51,2.49,25.45,8.46,3.5,2.31,9.34,6.23,13.27,13.52,1.53,2.82,2.69,6.11,3.72,21.02.85,12.35.39,20.17.42,39,.03,4.57.05,8.3.08,10.71-.04,2.41-.09,6.14-.13,10.71-.15,18.86.27,26.64-.67,38.99-1.09,14.94-2.27,18.19-3.81,21.04-3.96,7.23-9.86,11.09-13.33,13.42-9,5.9-17.49,7.2-25.53,8.31-6.51.9-19.7,2-20.5-.89-.51-1.97,5.31-3.61,13.33-10.79,3.59-3.21,9.82-8.93,13.53-17.55,2.2-5.11,2.58-10.37,3.34-20.86.42-5.99.39-9.65.42-23.5l.09-37.93c.07-13.89.11-17.51-.27-23.54-.71-10.49-1.06-15.75-3.2-20.88-3.67-8.63-9.87-14.39-13.41-17.61C5.85,173.27.01,171.61.56,169.64c.77-2.92,14-1.72,20.5-.79Z"/>
  <path class="cls-1" d="M157.49,25.77c4.84,6.52,9.92,13.43,12.01,23.98.84,4.11,2.2,11.01-.17,18.94-.91,3.07-2.42,6.22-12.24,17.49-8.14,9.34-13.99,14.54-27.28,27.87-3.21,3.25-5.83,5.9-7.51,7.63-1.74,1.68-4.4,4.28-7.67,7.48-13.44,13.23-18.65,19.03-28.05,27.1-11.34,9.79-14.47,11.26-17.57,12.18-7.91,2.31-14.81.87-18.92.06-10.54-2.19-17.45-7.28-23.93-12.17-5.24-3.97-15.35-12.52-13.87-15.12,1.04-1.75,6.3,1.2,17.05,1.8,4.81.27,13.26.63,21.97-2.84,5.17-2.06,9.16-5.51,17.11-12.39,4.53-3.94,7.1-6.55,16.91-16.32l26.89-26.76c9.87-9.77,12.46-12.3,16.45-16.84,6.92-7.92,10.39-11.89,12.49-17.03,3.51-8.7,3.19-17.15,2.97-21.93-.54-10.75-3.5-16.06-1.72-17.06,2.61-1.52,11.12,8.68,15.06,13.94Z"/>
  <path class="cls-1" d="M355.12,21.07c-1.19,8.04-2.49,16.51-8.46,25.45-2.31,3.5-6.23,9.34-13.52,13.27-2.82,1.53-6.11,2.69-21.02,3.72-12.35.85-20.17.39-39,.42-4.57.03-8.3.05-10.71.08-2.41-.04-6.14-.09-10.71-.13-18.86-.15-26.64.27-38.99-.67-14.94-1.09-18.19-2.27-21.04-3.81-7.23-3.96-11.09-9.86-13.42-13.33-5.9-9-7.2-17.49-8.31-25.53-.9-6.51-2-19.7.89-20.5,1.97-.51,3.61,5.31,10.79,13.33,3.21,3.59,8.93,9.82,17.55,13.53,5.11,2.2,10.37,2.58,20.86,3.34,5.99.42,9.65.39,23.5.42l37.93.09c13.89.07,17.51.11,23.54-.27,10.49-.71,15.75-1.06,20.88-3.2,8.63-3.67,14.39-9.87,17.61-13.41,7.22-7.99,8.88-13.83,10.85-13.28,2.92.77,1.72,14,.79,20.5Z"/>
  <path class="cls-1" d="M498.19,157.49c-6.52,4.84-13.43,9.92-23.98,12.01-4.11.84-11.01,2.2-18.94-.17-3.07-.91-6.22-2.42-17.49-12.24-9.34-8.14-14.54-13.99-27.87-27.28-3.25-3.21-5.9-5.83-7.63-7.51-1.68-1.74-4.28-4.4-7.48-7.67-13.23-13.44-19.03-18.65-27.1-28.05-9.79-11.34-11.26-14.47-12.18-17.57-2.31-7.91-.87-14.81-.06-18.92,2.19-10.54,7.28-17.45,12.17-23.93,3.97-5.24,12.52-15.35,15.12-13.87,1.75,1.04-1.2,6.3-1.8,17.05-.27,4.81-.63,13.26,2.84,21.97,2.06,5.17,5.51,9.16,12.39,17.11,3.94,4.53,6.55,7.1,16.32,16.91l26.76,26.89c9.77,9.87,12.3,12.46,16.84,16.45,7.92,6.92,11.89,10.39,17.03,12.49,8.7,3.51,17.15,3.19,21.93,2.97,10.75-.54,16.06-3.5,17.06-1.72,1.52,2.61-8.68,11.12-13.94,15.06Z"/>
  <path class="cls-1" d="M502.9,355.12c-8.04-1.19-16.51-2.49-25.45-8.46-3.5-2.31-9.34-6.23-13.27-13.52-1.53-2.82-2.69-6.11-3.72-21.02-.85-12.35-.39-20.17-.42-39-.03-4.57-.05-8.3-.08-10.71.04-2.41.09-6.14.13-10.71.15-18.86-.27-26.64.67-38.99,1.09-14.94,2.27-18.19,3.81-21.04,3.96-7.23,9.86-11.09,13.33-13.42,9-5.9,17.49-7.2,25.53-8.31,6.51-.9,19.7-2,20.5.89.51,1.97-5.31,3.61-13.33,10.79-3.59,3.21-9.82,8.93-13.53,17.55-2.2,5.11-2.58,10.37-3.34,20.86-.42,5.99-.39,9.65-.42,23.5l-.09,37.93c-.07,13.89-.11,17.51.27,23.54.71,10.49,1.06,15.75,3.2,20.88,3.67,8.63,9.87,14.39,13.41,17.61,7.99,7.22,13.83,8.88,13.28,10.85-.77,2.92-14,1.72-20.5.79Z"/>
  <path class="cls-1" d="M366.48,498.19c-4.84-6.52-9.92-13.43-12.01-23.98-.84-4.11-2.2-11.01.17-18.94.91-3.07,2.42-6.22,12.24-17.49,8.14-9.34,13.99-14.54,27.28-27.87,3.21-3.25,5.83-5.9,7.51-7.63,1.74-1.68,4.4-4.28,7.67-7.48,13.44-13.23,18.65-19.03,28.05-27.1,11.34-9.79,14.47-11.26,17.57-12.18,7.91-2.31,14.81-.87,18.92-.06,10.54,2.19,17.45,7.28,23.93,12.17,5.24,3.97,15.35,12.52,13.87,15.12-1.04,1.75-6.3-1.2-17.05-1.8-4.81-.27-13.26-.63-21.97,2.84-5.17,2.06-9.16,5.51-17.11,12.39-4.53,3.94-7.1,6.55-16.91,16.32l-26.89,26.76c-9.87,9.77-12.46,12.3-16.45,16.84-6.92,7.92-10.39,11.89-12.49,17.03-3.51,8.7-3.19,17.15-2.97,21.93.54,10.75,3.5,16.06,1.72,17.06-2.61,1.52-11.12-8.68-15.06-13.94Z"/>
  <path class="cls-1" d="M168.84,502.9c1.19-8.04,2.49-16.51,8.46-25.45,2.31-3.5,6.23-9.34,13.52-13.27,2.82-1.53,6.11-2.69,21.02-3.72,12.35-.85,20.17-.39,39-.42,4.57-.03,8.3-.05,10.71-.08,2.41.04,6.14.09,10.71.13,18.86.15,26.64-.27,38.99.67,14.94,1.09,18.19,2.27,21.04,3.81,7.23,3.96,11.09,9.86,13.42,13.33,5.9,9,7.2,17.49,8.31,25.53.9,6.51,2,19.7-.89,20.5-1.97.51-3.61-5.31-10.79-13.33-3.21-3.59-8.93-9.82-17.55-13.53-5.11-2.2-10.37-2.58-20.86-3.34-5.99-.42-9.65-.39-23.5-.42l-37.93-.09c-13.89-.07-17.51-.11-23.54.27-10.49.71-15.75,1.06-20.88,3.2-8.63,3.67-14.39,9.87-17.61,13.41-7.22,7.99-8.88,13.83-10.85,13.28-2.92-.77-1.72-14-.79-20.5Z"/>
  <path class="cls-1" d="M25.77,366.48c6.52-4.84,13.43-9.92,23.98-12.01,4.11-.84,11.01-2.2,18.94.17,3.07.91,6.22,2.42,17.49,12.24,9.34,8.14,14.54,13.99,27.87,27.28,3.25,3.21,5.9,5.83,7.63,7.51,1.68,1.74,4.28,4.4,7.48,7.67,13.23,13.44,19.03,18.65,27.1,28.05,9.79,11.34,11.26,14.47,12.18,17.57,2.31,7.91.87,14.81.06,18.92-2.19,10.54-7.28,17.45-12.17,23.93-3.97,5.24-12.52,15.35-15.12,13.87-1.75-1.04,1.2-6.3,1.8-17.05.27-4.81.63-13.26-2.84-21.97-2.06-5.17-5.51-9.16-12.39-17.11-3.94-4.53-6.55-7.1-16.32-16.91l-26.76-26.89c-9.77-9.87-12.3-12.46-16.84-16.45-7.92-6.92-11.89-10.39-17.03-12.49-8.7-3.51-17.15-3.19-21.93-2.97-10.75.54-16.06,3.5-17.06,1.72-1.52-2.61,8.68-11.12,13.94-15.06Z"/>
</svg>