<?xml version="1.0" encoding="iso-8859-1"?>
<!-- Uploaded to: SVG Repo, www.svgrepo.com, Generator: SVG Repo Mixer Tools -->
<svg height="800px" width="800px" version="1.1" id="Capa_1" xmlns="http://www.w3.org/2000/svg" xmlns:xlink="http://www.w3.org/1999/xlink" 
	 viewBox="0 0 293.721 293.721" xml:space="preserve">
<g>
	<g>
		<path style="fill:#34204d;" d="M174.13,22.861c-5.396,7.223-3.971,20.522,0.713,28.223l29.453,48.451
			c4.678,7.702,15.839,15.083,24.731,13.614c19.494-3.231,36.752-16.535,44.111-36.382c10.943-29.485-4.085-62.256-33.575-73.193
			C215.32-5.427,188.853,3.145,174.13,22.861z"/>
		<path style="fill:#010002;" d="M134.936,67.63L23.81,163.673c-6.815,5.896-8.849,17.095-4.536,25.003l0.348,0.642
			c4.308,7.914,14.446,11.297,22.648,7.56l56.996-25.999c8.202-3.742,14.843-0.734,14.843,6.723c0,7.457,2.176,13.5,4.868,13.5
			c2.687,0,4.863,7.305,4.863,16.317v69.984c0,9.013,3.693,16.317,8.246,16.317c4.553,0,8.246-7.305,8.246-16.317V207.42
			c0-9.013,2.513-16.317,5.619-16.317c3.1,0,5.613-7.31,5.613-16.317v-11.455c0-9.013,6.647-19.352,14.849-23.089l10.03-4.58
			c8.202-3.742,11.03-13.005,6.331-20.69l-26.983-44.089C151.09,63.187,141.751,61.74,134.936,67.63z"/>
	</g>
</g>
</svg>